<svg width="60" height="66" viewBox="0 0 60 66" fill="none" xmlns="http://www.w3.org/2000/svg">
<path d="M25.8416 0.0250912C27.1582 -0.122963 28.4628 0.390585 29.3252 1.39646L37.4861 10.9149C46.8581 13.2309 52.2882 20.288 55.2915 29.0978C58.3862 38.1756 59.1517 49.7001 59.1517 61.5181C59.1517 63.7272 57.3608 65.5181 55.1517 65.5181H17.8566C15.7331 65.5181 13.9796 63.8587 13.8627 61.7384C13.7583 59.8462 14.1937 56.563 15.5203 53.2095L15.5447 53.1482C11.7774 55.1703 7.59652 54.6859 4.49283 52.4762C0.720966 49.7906 -1.37628 44.5335 1.01985 39.3419C2.74774 35.5982 4.61002 33.6157 6.01882 32.1164C7.33476 30.7158 7.88316 30.0998 8.27112 28.548C10.6234 19.139 15.4626 13.7188 20.6595 11.2452C20.5844 10.1733 20.6455 9.14061 20.777 8.20301C21.1043 5.8692 21.919 3.71251 22.7495 2.13587C23.367 0.963589 24.5249 0.173146 25.8416 0.0250912Z" fill="#34364C"/>
<path fill-rule="evenodd" clip-rule="evenodd" d="M35.3225 14.5366L26.2886 4C24.9809 6.4826 23.7132 10.8642 25.5358 14.0273C24.6512 14.106 23.8057 14.2557 23.1518 14.5181C18.9796 16.1924 14.4018 20.5181 12.1518 29.5181C11.5003 32.1241 10.3277 33.3721 8.93398 34.8554C7.61934 36.2545 6.108 37.8629 4.65178 41.0181C1.65178 47.5181 9.7481 54.0181 15.6518 48.1144C18.9709 44.7953 21.8722 43.4251 24.308 42.2747C27.8138 40.6189 30.3554 39.4185 31.7911 33.5181C32.4742 36.2704 32.201 42.7658 25.6436 46.7291C19.0862 50.6924 17.7201 59.041 17.8567 61.5181H55.1518C55.1518 38.0013 52.0383 17.6829 35.3225 14.5366Z" fill="#F4F7FA"/>
<circle cx="24.1516" cy="26.5181" r="3" fill="#34364C"/>
</svg>
