<svg width="60" height="66" viewBox="0 0 60 66" fill="none" xmlns="http://www.w3.org/2000/svg">
<path d="M25.8416 0.0250912C27.1582 -0.122963 28.4628 0.390585 29.3252 1.39646L37.4861 10.9149C46.8581 13.2309 52.2882 20.288 55.2915 29.0978C58.3862 38.1756 59.1517 49.7001 59.1517 61.5181C59.1517 63.7272 57.3608 65.5181 55.1517 65.5181H17.8566C15.7331 65.5181 13.9796 63.8587 13.8627 61.7384C13.7583 59.8462 14.1937 56.563 15.5203 53.2095L15.5447 53.1482C11.7774 55.1703 7.59652 54.6859 4.49283 52.4762C0.720966 49.7906 -1.37628 44.5335 1.01985 39.3419C2.74774 35.5982 4.61002 33.6157 6.01882 32.1164C7.33476 30.7158 7.88316 30.0998 8.27112 28.548C10.6234 19.139 15.4626 13.7188 20.6595 11.2452C20.5844 10.1733 20.6455 9.14061 20.777 8.20301C21.1043 5.8692 21.919 3.71251 22.7495 2.13587C23.367 0.963589 24.5249 0.173146 25.8416 0.0250912Z" fill="#F4F7FA"/>
<path fill-rule="evenodd" clip-rule="evenodd" d="M35.3223 14.5366L26.2885 4C24.9808 6.4826 23.713 10.8642 25.5357 14.0273C24.6511 14.106 23.8056 14.2557 23.1517 14.5181C18.9795 16.1924 14.4017 20.5181 12.1517 29.5181C11.5001 32.1241 10.3275 33.3721 8.93386 34.8554C7.61922 36.2545 6.10788 37.8629 4.65166 41.0181C1.65166 47.5181 9.74798 54.0181 15.6517 48.1144C18.9708 44.7953 21.872 43.4251 24.3078 42.2747C27.8137 40.6189 30.3553 39.4185 31.791 33.5181C32.4741 36.2704 32.2008 42.7658 25.6435 46.7291C19.0861 50.6924 17.72 59.041 17.8566 61.5181H55.1517C55.1517 38.0013 52.0381 17.6829 35.3223 14.5366Z" fill="#34364C"/>
<circle cx="24.1517" cy="26.5181" r="3" fill="#F4F7FA"/>
</svg>
