<svg width="47" height="60" viewBox="0 0 47 60" fill="none" xmlns="http://www.w3.org/2000/svg">
<path d="M11.1075 35.127C10.6303 35.7785 10.0608 36.4569 9.39706 37.1548C7.05452 39.6178 4.18156 41.6443 2.32735 42.7038L2.01543 42.8821C0.769139 43.5942 0 44.9196 0 46.355V56C0 58.2091 1.79086 60 4 60H43C45.2091 60 47 58.2091 47 56V46.355C47 44.9196 46.2309 43.5943 44.9846 42.8821L44.6727 42.7038C42.8185 41.6443 39.9455 39.6178 37.6029 37.1548C36.9392 36.4569 36.3697 35.7785 35.8925 35.127C37.648 34.7041 38.9524 33.1234 38.9524 31.2381V24.7269C38.9524 23.4272 38.3209 22.2085 37.2591 21.459L35.5602 20.2598C36.5405 18.3551 37.0952 16.1938 37.0952 13.9048C37.0952 6.22537 30.8699 0 23.1905 0C15.5111 0 9.28572 6.22537 9.28572 13.9048C9.28572 16.3225 9.90442 18.5972 10.9895 20.5776L9.74089 21.459C8.67908 22.2085 8.04762 23.4272 8.04762 24.7269V31.2381C8.04762 33.1234 9.35196 34.7041 11.1075 35.127Z" fill="#F4F7FA"/>
<path d="M33.0952 13.9048C33.0952 16.7774 31.8723 19.3645 29.9187 21.1736L34.9524 24.7269V31.2381H30.0246C30.2622 34.2562 32.1987 37.2768 34.7045 39.9115C37.3638 42.7075 40.5633 44.9626 42.6881 46.1768L43 46.355V56H4V46.355L4.31191 46.1768C6.4367 44.9626 9.63617 42.7075 12.2955 39.9115C14.8013 37.2768 16.7378 34.2562 16.9754 31.2381H12.0476V24.7269L16.7357 21.4176C14.6234 19.6012 13.2857 16.9092 13.2857 13.9048C13.2857 8.43451 17.7202 4 23.1905 4C28.6607 4 33.0952 8.43451 33.0952 13.9048Z" fill="#34364C"/>
</svg>
