<svg width="64" height="66" viewBox="0 0 64 66" fill="none" xmlns="http://www.w3.org/2000/svg">
<path fill-rule="evenodd" clip-rule="evenodd" d="M24.7597 3.87506C24.8272 1.71562 26.5973 0 28.7578 0H34.7578C36.9183 0 38.6883 1.71562 38.7558 3.87506L38.791 5H40.7578C42.9669 5 44.7578 6.79086 44.7578 9V11.4261C49.1179 10.4394 53.8241 11.0984 57.8185 14.4271C66.1167 21.3423 65.3532 35.8381 55.505 43.7669C53.1283 45.6803 51.2613 47.2665 49.9756 48.901C49.6823 49.2739 49.431 49.6347 49.2195 49.9878L53.2733 50.5361C55.2572 50.8044 56.7372 52.4981 56.7372 54.5V62C56.7372 64.2091 54.9464 66 52.7372 66H10.7783C8.56917 66 6.77831 64.2091 6.77831 62V54.5C6.77831 52.4981 8.25831 50.8044 10.2422 50.5361L14.2961 49.9878C14.0845 49.6347 13.8333 49.2739 13.5399 48.901C12.2543 47.2665 10.3872 45.6803 8.01059 43.7669C-1.83761 35.8381 -2.60114 21.3423 5.69703 14.4271C9.69143 11.0984 14.3976 10.4394 18.7578 11.4261V9C18.7578 6.79086 20.5486 5 22.7578 5H24.7246L24.7597 3.87506Z" fill="#34364C"/>
<path fill-rule="evenodd" clip-rule="evenodd" d="M28.7577 4H34.7577L34.9139 9H40.7577V15H35.1014L35.3762 21.793C35.4858 21.6638 35.5988 21.5372 35.7151 21.4135C41.1783 15.6071 49.2784 12.5172 55.2577 17.5C61.2577 22.5 61.2577 34 52.9964 40.6512C48.3167 44.4188 44.125 48.0509 44.3316 53.3632L52.7372 54.5V62H10.7782V54.5L19.1838 53.3632C19.3904 48.0509 15.1987 44.4188 10.519 40.6512C2.25769 34 2.25769 22.5 8.25769 17.5C14.237 12.5172 22.3371 15.6071 27.8002 21.4135C27.9166 21.5372 28.0295 21.6638 28.1392 21.793L28.4139 15H22.7577V9H28.6014L28.7577 4ZM23.1057 26.9731C26.7724 32.9791 27.2577 40 27.2577 43.0532C25.4198 43.0565 18.4915 40.0085 14.8233 35.0046C12.1825 31.4022 11.4939 26.0575 13.7577 23.9825C16.0215 21.9075 20.814 23.2194 23.1057 26.9731ZM40.4097 26.9731C36.743 32.9791 36.2577 40 36.2577 43.0532C38.0955 43.0565 45.0239 40.0085 48.6921 35.0046C51.3329 31.4022 52.0215 26.0575 49.7577 23.9825C47.4939 21.9075 42.7013 23.2194 40.4097 26.9731Z" fill="#F4F7FA"/>
</svg>
